<?xml version="1.0" encoding="UTF-8"?>
<svg width="507px" height="507px" viewBox="0 0 507 507" version="1.1" xmlns="http://www.w3.org/2000/svg" xmlns:xlink="http://www.w3.org/1999/xlink">
    <title>Artboard Copy</title>
    <g id="Artboard-Copy" stroke="none" stroke-width="1" fill="none" fill-rule="evenodd">
        <g id="Group-3">
            <circle id="Oval" fill="#FFFFFF" cx="253.5" cy="253.5" r="253.5"></circle>
            <g id="Group-2" transform="translate(85.046500, 43.056477)">
                <g id="logo" fill="#000000" fill-rule="nonzero">
                    <g id="Group" transform="translate(152.420191, 210.454561) scale(-1, 1) rotate(-180.000000) translate(-152.420191, -210.454561) translate(0.000000, 0.000000)">
                        <path d="M106.886878,411.022315 C84.5124059,397.290033 70.9141305,378.862675 64.5518443,370.932016 C54.187685,358.01298 42.2316409,351.255151 33.0101484,347.256643 C26.9323466,344.626046 12.9953182,340.94321 5.76482974,339.996195 C3.62777484,339.700208 1.70616493,338.929979 0,337.685508 C1.33887443,334.690548 2.70160601,331.286897 4.08819474,327.474554 C8.27978223,316.005151 36.5972947,223.723807 41.9415688,225.196942 C50.6391128,227.617091 71.9172618,234.04786 89.0689121,249.388441 C106.220562,264.729021 126.14272,290.770981 161.25329,304.415983 C164.223962,305.570474 177.181322,310.413745 185.774077,311.676431 C196.357835,313.254789 210.609233,312.72867 211.866709,310.83464 C212.285868,310.098073 215.553784,301.484255 218.278316,293.276792 C220.898058,285.06933 224.251328,274.546942 225.823173,269.917091 C227.290229,265.28724 230.853078,254.449181 233.6824,245.715598 C244.091509,213.517091 252.573308,188.25337 259.127797,169.924437 C267.371538,170.148446 272.983841,167.82045 275.964706,162.940448 C276.881686,161.559279 278.594559,158.655126 279.432273,157.068437 C279.613315,157.023766 282.782501,161.257992 283.98145,164.167091 C284.086226,164.421319 284.187897,164.679685 284.285657,164.939785 C284.98836,166.809387 285.489027,168.76858 285.489027,169.924437 C285.489027,173.771838 285.029346,176.267837 282.409604,178.372315 C279.789862,180.476792 277.32042,181.160768 274.550378,181.002912 C272.58188,180.890734 270.950265,180.165105 268.786945,179.424554 C267.384709,178.777333 266.167203,177.846195 265.643254,177.846195 C265.119306,178.372315 263.946856,180.966866 262.080405,186.790225 C260.927718,190.262613 256.212182,205.204404 251.496646,219.935748 C246.781111,234.667091 241.960785,249.398434 240.912888,252.555151 C239.760201,255.711867 236.511721,265.708136 233.6824,274.652166 C230.853078,283.596195 227.604598,293.592464 226.556701,296.749181 C225.404014,299.905897 220.793268,313.900673 216.392101,327.790225 C194.805426,395.449181 187.574937,417.020076 186.107882,418.072315 C181.497135,421.123807 129.26135,424.754597 106.886878,411.022315 Z" id="Path"></path>
                        <path d="M154.670975,247.083509 C153.413499,237.508136 153.937448,237.08724 162.844571,239.717837 L166.931369,240.980524 L164.102047,244.347688 C162.530202,246.241718 159.91046,248.767091 158.338614,249.924554 L155.404503,251.923807 L154.670975,247.083509 Z" id="Path"></path>
                        <path d="M159.644705,238.230597 C151.946444,236.347597 147.546954,234.373419 138.011093,227.744314 C133.400346,224.482374 130.359768,220.356643 128.473554,217.199927 C125.644232,212.780524 125.120284,212.359628 122.186172,212.885748 C120.404748,213.201419 114.955684,214.253658 110.030569,215.095449 C105.105453,216.042464 100.075548,216.779031 98.7132824,216.779031 C96.3031196,216.779031 96.3031196,216.779031 99.4468102,212.885748 C104.162346,206.782763 112.85989,188.684255 114.850894,180.476792 C115.898791,175.952166 116.737109,167.744703 116.946688,159.432016 L117.261057,145.752912 L125.749022,144.805897 L134.236986,143.964106 L132.141193,141.649181 C130.883716,140.386494 129.940609,139.123807 129.940609,138.808136 C129.940609,138.597688 134.970514,138.38724 141.153106,138.282016 C152.156023,138.176792 162.739781,136.914106 164.206837,135.440972 C164.521206,135.020076 163.473309,134.704404 161.796674,134.704404 C143.877638,134.493957 126.063391,130.811121 118.099375,125.655151 C114.117366,123.024554 107.515616,116.290225 105.000664,112.186494 C104.162346,111.029031 101.647394,108.608882 99.4468102,106.9253 C97.1414371,105.346942 94.7312743,102.716345 94.2073258,101.24321 C93.6833774,99.8752999 92.9498496,98.8230611 92.6354805,99.1387328 C92.4259011,99.4544044 92.6354805,100.927539 93.1594289,102.505897 C94.1025361,104.926046 93.9977464,105.241718 92.2163218,105.241718 C88.7582621,105.241718 83.2044087,101.979778 81.3181943,98.928285 C76.1834996,89.9842552 83.099619,81.0402253 94.2073258,82.4081358 C97.3510164,82.8290313 98.2941236,82.7238074 96.9318577,82.0924641 C95.7791711,81.5663447 93.5785877,81.1454492 92.1115321,81.1454492 C88.3391033,81.0402253 87.8151549,80.1984343 89.806159,77.1469417 C93.2642186,71.9909716 101.018655,69.9917178 105.629402,73.2536581 C106.779374,74.0409792 108.037711,74.9143727 108.26165,74.7856234 C108.486646,74.6562664 108.160647,74.0867506 107.793019,72.7683554 C107.60083,71.9642483 106.618752,71.2924052 105.946156,69.7273333 C105.946156,69.5974538 106.009543,69.4497538 106.34248,69.4497538 C117.100076,69.4497538 117.412518,69.1055258 123.545719,76.0990877 C127.275794,80.3524144 125.376714,77.8878937 124.747975,76.0990877 C121.185126,70.6202896 124.748596,72.2711836 133.189089,82.8290313 C134.132197,85.6700761 133.817828,87.2484343 130.988506,94.0879865 C127.216077,103.242464 127.216077,103.242464 135.075304,108.714106 C141.886634,113.449181 144.401586,114.711867 150.898547,116.395449 C156.033241,117.76336 173.11396,118.394703 170.075059,117.132016 C169.131952,116.816345 168.922373,115.34321 169.341532,112.607389 C169.655901,110.397688 169.446321,106.9253 168.712793,104.820822 C166.826579,99.1387328 167.245738,92.4044044 169.76069,84.6178372 C171.646905,79.1461955 171.961274,76.5155984 171.332536,71.7805238 C169.97027,60.8372402 169.97027,60.8372402 160.539198,61.2581358 C156.138031,61.5738074 149.012332,62.7312701 144.925534,63.9939566 C140.733947,65.2566432 136.33278,66.308882 135.075304,66.308882 C129.416661,66.308882 123.653228,61.047688 119.67122,52.1036581 C117.261057,46.8424641 115.374843,30.7432104 117.365847,23.6932104 C121.243065,10.2245537 130.150189,0.75440441 143.563269,0.0178372458 C148.593174,-0.192610515 153.308709,1.49097157 156.661979,3.38500142 C162.634992,6.85738948 165.778682,13.3812701 165.359523,21.2730611 C165.071837,25.6062368 164.160278,28.3705634 161.377515,29.4805238 C159.092175,30.3920775 155.254266,30.0066432 151.946444,30.0066432 C150.062063,30.0066432 147.098862,30.8709601 146.706959,31.058882 C146.302869,31.2526478 148.526936,30.7743588 150.374598,31.058882 C152.193169,31.3389254 154.736381,30.9098605 158.233825,31.058882 C161.15179,31.1832128 161.901464,31.058882 169.236742,32.1111208 C176.57202,33.1633596 187.574937,36.8461955 191.137787,45.2641059 C192.919211,49.7887328 195.853322,65.7827626 196.167692,73.6745537 C196.167692,77.7736494 196.167692,79.8231973 196.167692,79.8231973 C214.401097,81.1454492 226.55841,94.9021176 221.7393,113.631968 C220.554147,116.512278 217.480379,120.38005 213.83249,123.170401 C206.961561,128.426128 200.515661,129.358149 198.816939,130.621693 C197.118216,131.885237 197.609283,134.704404 197.609283,136.357911 C197.609283,137.094478 199.920329,138.542528 204.131708,140.074811 C214.401097,144.471376 215.040363,147.82179 217.335208,146.489479 C218.848702,145.858136 221.107637,145.957783 224.251328,147.430917 C231.233777,151.436827 234.25898,157.069523 234.625792,162.989158 C234.889615,167.246741 230.014761,169.591115 226.137542,168.11798 C225.718837,168.780384 225.718837,168.780384 224.967473,168.374628 C224.21611,167.968871 224.482124,167.255163 224.967473,167.092476 C225.218349,167.008384 225.78483,167.034039 226.137542,167.092476 C227.190999,167.267014 227.698992,167.540901 228.485182,167.537735 C234.426167,167.513812 233.603491,162.582502 232.215344,158.586658 C228.862074,148.906061 215.868153,143.122315 215.868153,151.11933 C215.868153,153.855151 214.885308,154.149435 212.475145,152.571077 C211.112879,151.729286 210.087788,151.436827 212.01374,151.436827 C213.939692,151.436827 214.17268,150.593579 214.401097,149.941437 C214.582083,149.424713 215.17987,148.409595 214.858679,147.979769 C212.934042,145.404167 201.367762,139.882582 189.333821,137.668755 C175.711161,135.143382 157.605087,138.597688 152.260813,144.490225 C149.326701,147.646942 146.706959,153.01336 146.706959,155.959628 C146.706959,163.430524 156.34761,170.270076 171.856484,173.63724 C177.305548,174.899927 184.116878,176.688733 186.946199,177.530524 C193.33837,179.529778 202.01593,185.306339 204.131708,192.930734 C206.374863,199.528489 204.760446,204.286009 203.29339,208.91586 C202.559862,211.230785 202.209967,211.373165 207.449451,207.795553 C209.475385,206.392568 212.426255,204.925825 216.302061,203.395325 C215.715473,202.324517 215.234345,201.498942 214.858679,200.918599 C213.810782,199.340241 213.62291,196.515182 213.83249,194.200256 C214.251648,188.728614 217.335208,187.172643 220.933163,186.224982 C224.531117,185.27732 230.085407,186.224982 230.744139,186.224982 C230.744139,185.130265 230.479101,178.043059 229.544194,172.831984 C228.920922,169.357934 228.567918,167.872622 228.485182,168.376046 L229.544194,168.374628 C230.847717,172.391608 231.738101,175.443574 232.215344,177.530524 C232.659628,179.473346 234.79913,185.552036 235.19947,187.727408 C238.898075,193.158617 240.258905,197.265825 239.490589,202.070102 C238.722274,206.874379 233.227001,209.260609 227.931185,208.91586 C227.300553,209.902479 225.62064,214.608868 221.7393,219.764678 C217.843315,224.939942 210.839174,230.965908 203.29339,234.619344 C186.008792,242.988013 167.342967,240.113596 159.644705,238.230597 Z M193.251765,235.988512 C191.771322,234.422568 192.798701,228.537624 201.745813,222.923334 C203.570302,221.778472 207.073249,222.185047 207.662484,222.516102 C210.467934,224.092312 209.752119,227.297804 210.010328,227.289736 C210.571924,227.272188 215.609883,224.210186 221.040473,215.548683 C223.761745,211.208399 224.866566,208.749787 224.354937,208.172849 C222.821607,207.770638 221.716786,207.373635 221.040473,206.98184 C220.36416,206.590045 219.502535,205.995412 218.455599,205.19794 C214.425864,206.229996 211.041563,207.818341 208.302693,209.962974 C200.768939,215.862176 191.37349,226.61053 189.592649,231.830021 C189.270323,232.77473 187.582631,237.512736 188.203119,237.512736 C188.823607,237.512736 192.119552,236.544914 193.251765,235.988512 Z M200.993787,209.41336 C210.885986,187.650425 184.035061,169.4736 159.101439,184.293708 C149.959115,189.727746 143.166691,197.278836 142.168869,208.871273 C140.765019,225.180835 157.504984,233.342151 173.191693,230.309759 C184.841168,228.057803 196.778168,218.687762 200.993787,209.41336 Z" id="Shape"></path>
                        <path d="M164.311627,223.302912 C163.26373,219.409628 165.988262,214.253658 171.332536,210.255151 C176.886389,206.046195 180.763608,205.414852 182.649822,208.466345 C184.326457,211.096942 182.754612,214.990225 177.829496,220.251419 C173.847488,224.565598 171.486673,225.684527 169.021296,225.684527 C165.772816,225.684527 164.625996,224.776046 164.311627,223.302912 Z" id="Path"></path>
                        <path d="M274.026429,210.78127 C272.664163,202.258136 272.768953,202.36336 269.415683,202.889479 C267.739048,203.099927 266.062413,202.784255 265.643254,202.152912 C264.595357,200.364106 267.11031,197.838733 269.939631,197.838733 C271.825846,197.838733 272.873743,198.785748 274.026429,201.626792 C274.864747,203.73127 275.598275,206.572315 275.598275,207.940225 C275.598275,210.886494 276.227013,210.991718 281.256918,208.88724 C284.714977,207.414106 285.029346,206.887986 285.029346,202.994703 C285.029346,198.996195 284.819767,198.680524 282.514394,199.101419 C278.951545,199.837986 277.27491,198.5753 278.218017,195.839479 C278.637175,194.261121 279.789862,193.629778 281.885656,193.629778 C284.610188,193.629778 284.924557,194.050673 285.972454,198.890972 C286.601192,201.83724 287.12514,205.835748 287.12514,207.835001 C287.12514,211.202166 286.915561,211.412613 281.466497,212.990972 C278.322806,213.937986 275.493485,214.674554 275.179116,214.674554 C274.864747,214.674554 274.340798,212.885748 274.026429,210.78127 Z" id="Path"></path>
                        <path d="M239.969781,183.107389 C239.969781,182.476046 240.912888,180.161121 242.065575,177.846195 C243.218261,175.53127 244.161368,173.532016 244.161368,173.321569 C244.161368,173.005897 243.218261,172.585001 242.065575,172.26933 C239.026674,171.532763 239.341043,168.376046 242.484733,168.376046 C245.942793,168.376046 246.361952,170.059628 244.161368,175.952166 C242.379944,180.792464 242.379944,180.897688 244.580527,182.476046 C246.676321,184.054404 246.676321,184.054404 243.427841,184.054404 C241.541626,184.159628 239.969781,183.633509 239.969781,183.107389 Z" id="Path"></path>
                        <path d="M260.841164,168.823504 C256.754366,167.981712 252.439754,161.852166 251.811016,154.696942 C251.287067,149.014852 250.763119,147.962613 247.514638,145.016345 C242.170364,140.386494 229.805181,134.809628 221.841165,133.441718 C216.91605,132.599927 212.829252,132.599927 207.380188,133.441718 C203.188601,134.073061 197.878738,134.23868 197.669159,134.133456 C197.774304,133.441718 197.774304,132.57581 198.411032,131.471029 C199.047759,130.366248 202.741491,129.503018 206.514582,127.907004 C210.255501,125.949903 213.674597,124.399042 216.952207,120.795111 C219.13728,118.39249 220.585726,116.554761 221.297546,115.281922 L230.748288,115.974554 C242.275154,116.605897 249.820011,119.13127 258.412766,124.918584 C261.870825,127.233509 265.852834,129.44321 267.529469,129.864106 C270.777949,130.600673 270.149211,131.547688 275.598275,116.290225 C279.894652,103.979031 280.104231,103.66336 282.933553,103.66336 C287.649089,103.66336 287.753878,106.293957 283.87666,119.236494 L280.104231,131.232016 L284.610188,133.546942 C289.640093,136.282763 291.627322,141.69088 292.364624,143.648434 C293.101927,145.605989 291.422283,149.72332 290.792779,149.961867 C289.960729,150.277169 290.792779,149.961867 286.601192,146.805151 C282.409604,143.648434 280.837759,143.648434 278.741965,143.122315 C276.646171,141.017837 276.646171,140.491718 274.759957,139.229031 C272.873743,137.966345 268.786945,137.335001 266.691151,137.861121 C264.595357,138.38724 260.718139,141.017837 259.251083,144.700673 C258.307976,147.33127 257.784028,149.751419 258.098397,150.067091 C258.412766,150.382763 259.146294,148.909628 259.879821,146.805151 C262.918722,137.545449 273.570319,136.914106 277.761907,145.016345 C278.989805,147.359019 279.351219,150.736545 278.741965,153.716483 C277.987763,157.405382 275.865489,160.726554 273.476879,163.591255 C268.194339,169.926693 262.20343,169.033951 260.841164,168.823504 Z" id="Path"></path>
                        <path d="M279.708317,155.863292 C281.593854,150.452848 279.030453,145.96336 279.030453,144.473828 C279.030453,143.763829 280.547583,144.726685 282.933553,145.96336 C283.692125,146.356536 288.530469,149.870405 290.792779,153.118584 C298.778578,164.58443 287.229059,169.420689 286.704926,167.990786 C283.815949,160.109291 281.651501,157.632825 279.708317,155.863292 Z" id="Path"></path>
                        <path d="M223.936959,158.064106 C221.631586,155.538733 221.422006,150.698434 223.62259,152.48724 C224.775276,153.434255 226.661491,159.958136 225.823173,159.958136 C225.718383,159.958136 224.880066,159.116345 223.936959,158.064106 Z" id="Path"></path>
                        <path d="M218.998452,90.7514924 C217.539803,88.6517431 215.159826,86.3686902 211.858521,83.9023338 C215.208716,80.7341877 218.291754,78.5525396 221.107637,77.3573895 C233.368031,71.9909716 234.101558,71.1491805 236.616511,58.7327626 C237.873987,52.7350014 239.550622,43.8961955 240.38894,38.9506731 C242.065575,29.0596283 243.63742,24.1141059 245.523634,22.9566432 C247.305059,21.7991805 259.565452,22.0096283 265.014516,23.2723149 C272.768953,25.0611208 286.915561,32.5320164 292.888573,38.108882 C309.550133,53.3663447 308.607026,73.0432104 291.211938,76.936494 C282.095235,79.0409716 267.319889,71.2544044 261.242087,61.2581358 C258.203186,56.4178372 258.098397,57.6805238 261.032508,63.2573895 C263.023512,67.3611208 263.128302,67.7820164 261.556456,75.3581358 C259.251083,86.617091 258.412766,87.458882 246.571531,91.3521656 C240.843028,93.2461955 232.810853,95.5882461 222.475005,98.3783174 C221.615952,95.3935167 220.457101,92.8512417 218.998452,90.7514924 Z" id="Path"></path>
                        <path d="M75.2403924,57.1544044 C71.677543,54.9447029 70.2104874,51.5775387 70.2104874,45.7902253 C70.2104874,40.1081358 73.8781265,35.3730611 80.2702974,32.4267925 C85.4049921,30.217091 105.210243,27.9021656 111.497624,28.8491805 L116.003581,29.4413571 C115.933213,34.0025664 116.009772,37.5278415 116.233258,40.0171822 C116.456744,42.5065229 116.991928,45.7952646 117.838809,49.8834071 C110.118363,51.5740222 103.952767,53.1909716 99.3420205,54.7342552 C85.7193611,59.258882 79.6415593,59.8902253 75.2403924,57.1544044 Z" id="Path"></path>
                    </g>
                </g>
                <text id="FvⒶ" transform="translate(105.898235, 85.883624) rotate(-30.000000) translate(-105.898235, -85.883624) " font-family="PingFangTC-Regular, PingFang TC" font-size="33" font-weight="normal" letter-spacing="1.03421074" fill="#FFFFFF">
                    <tspan x="71.4047587" y="97.8836237">Fv</tspan>
                    <tspan x="108.42018" y="97.8836237" font-size="31" letter-spacing="0.971531298">Ⓐ</tspan>
                </text>
            </g>
        </g>
    </g>
</svg>